<svg width="276" height="235" viewBox="0 0 276 235" fill="none" xmlns="http://www.w3.org/2000/svg">
<mask id="mask0_401_164" style="mask-type:luminance" maskUnits="userSpaceOnUse" x="40" y="0" width="197" height="122">
<path d="M236.092 0.156006H40.7422V121.156H236.092V0.156006Z" fill="white"/>
</mask>
<g mask="url(#mask0_401_164)">
<path d="M222.911 79.6379C225.195 81.2491 227.199 82.6771 228.698 84.0194L228.695 84.023C233.038 87.8918 235.762 93.5077 235.762 99.7626C235.762 111.42 226.281 120.879 214.587 120.879C205.053 120.879 196.987 114.589 194.342 105.938L194.342 105.938L194.338 105.926C193.637 103.976 193.212 100.891 192.945 97.2058C192.677 93.5282 192.568 89.28 192.488 85.0167C192.471 84.1108 192.456 83.2043 192.44 82.3024C192.382 78.9625 192.326 75.6875 192.207 72.7549C192.057 69.0352 191.806 65.8436 191.322 63.7596L191.322 63.759C190.861 61.8043 190.314 59.8093 188.379 57.2293L188.379 57.2291L188.37 57.2188C184.568 52.6755 180.002 51.2452 175.965 51.3377C171.943 51.4298 168.439 53.0338 166.73 54.5721L166.73 54.5727C165.128 56.0264 163.525 57.5608 162.09 60.5849C158.457 68.2416 158.735 77.19 159.27 85.6218C159.315 86.333 159.362 87.0405 159.408 87.7432C159.638 91.2163 159.861 94.5745 159.818 97.7057C159.767 101.47 159.331 104.878 158.078 107.733L158.078 107.733L158.075 107.739C154.926 115.458 147.329 120.897 138.466 120.897C126.773 120.897 117.292 111.438 117.292 99.7805C117.292 97.871 117.451 95.7451 117.623 93.4375C118.233 85.2526 119.013 74.7815 113.499 63.5713L113.499 63.5712C110.048 56.5576 104.746 51.3547 99.5604 47.2298C97.1121 45.2822 94.6865 43.5722 92.4941 42.0266C92.365 41.9355 92.2367 41.8451 92.1092 41.7551C89.813 40.1356 87.8007 38.7012 86.2991 37.3528L86.2984 37.3521C81.9553 33.4833 79.2318 27.8674 79.2318 21.6125C79.2318 9.95466 88.7126 0.49585 100.406 0.49585C109.958 0.49585 118.034 6.80439 120.669 15.4728L120.669 15.4728L120.673 15.4835C121.048 16.5443 121.296 17.8338 121.456 19.323L121.456 19.3238L121.47 19.445L121.483 19.5639C121.483 19.5644 121.483 19.5648 121.483 19.5652C121.887 23.5537 121.681 29.7319 121.467 36.1604C121.424 37.4534 121.381 38.7565 121.342 40.054C121.226 43.9217 121.151 47.7345 121.249 51.0625C121.346 54.3846 121.616 57.2465 122.199 59.2014L122.199 59.2016C123.297 62.8696 125.549 65.8646 128.125 67.5609C132.647 70.6618 137.18 70.934 140.978 69.8688C144.766 68.8064 147.823 66.4138 149.418 64.177C150.243 63.0214 151.344 61.367 152.088 58.291L152.088 58.2909C154.512 48.2498 155.371 28.9492 155.371 21.6125C155.371 9.95466 164.852 0.49585 176.545 0.49585C188.238 0.49585 197.719 9.95466 197.719 21.6125C197.719 23.5209 197.561 25.6453 197.389 27.9513C196.779 36.1368 196 46.6097 201.521 57.8219C204.972 64.8355 210.275 70.0384 215.46 74.1633C217.908 76.1109 220.334 77.8209 222.526 79.3665C222.655 79.4575 222.784 79.548 222.911 79.6379Z" fill="url(#paint0_linear_401_164)" stroke="#00C08D" stroke-width="0.5"/>
<path d="M83.5374 99.7805C83.5374 111.447 74.0566 120.897 62.3633 120.897C50.6699 120.897 41.1891 111.447 41.1891 99.7805C41.1891 88.1137 50.6699 78.6638 62.3633 78.6638C74.0566 78.6638 83.5374 88.1137 83.5374 99.7805Z" fill="url(#paint1_linear_401_164)" stroke="#00C08D" stroke-width="0.5"/>
</g>
<path fill-rule="evenodd" clip-rule="evenodd" d="M11.7581 164.247H1.97986C1.41053 164.247 0.948975 164.71 0.948975 165.281V222.904C0.948975 223.475 1.41053 223.938 1.97986 223.938H11.7581C12.3274 223.938 12.789 223.475 12.789 222.904V182.859L26.8716 198.774C26.9138 198.834 26.9621 198.889 27.0163 198.937L27.0404 198.967L32.1707 204.761L32.2008 204.791L33.4065 206.152C33.8346 206.533 34.4856 206.491 34.8594 206.067L55.3925 182.861V222.904C55.3925 223.475 55.854 223.938 56.4234 223.938H66.2016C66.771 223.938 67.2325 223.475 67.2325 222.904V165.281C67.2325 164.71 66.771 164.247 66.2016 164.247H56.4234C56.0818 164.247 55.779 164.414 55.5915 164.671L35.0945 188.033C34.6424 188.547 33.8526 188.547 33.3945 188.039L12.7263 164.857C12.7069 164.835 12.6879 164.815 12.6693 164.797C12.4961 164.47 12.1531 164.247 11.7581 164.247Z" fill="#5B5B5B"/>
<path d="M100.6 175.145C87.1688 175.145 76.2813 186.067 76.2813 199.542C76.2813 213.016 87.1688 223.938 100.6 223.938C114.032 223.938 124.919 213.016 124.919 199.542C124.919 186.067 114.032 175.145 100.6 175.145ZM100.6 212.774C93.3179 212.774 87.4099 206.847 87.4099 199.542C87.4099 192.236 93.3179 186.309 100.6 186.309C107.883 186.309 113.791 192.236 113.791 199.542C113.791 206.847 107.883 212.774 100.6 212.774Z" fill="#5B5B5B"/>
<path d="M197.708 175.145C192.843 175.145 188.315 176.585 184.517 179.052V176.198C184.517 175.629 184.053 175.163 183.486 175.163H173.708C173.141 175.163 172.677 175.629 172.677 176.198V233.82C172.677 234.389 173.141 234.854 173.708 234.854H183.486C184.053 234.854 184.517 234.389 184.517 233.82V220.037C188.315 222.505 192.843 223.944 197.708 223.944C211.139 223.944 222.027 213.022 222.027 199.548C222.027 186.073 211.139 175.151 197.708 175.151V175.145ZM197.708 212.774C190.431 212.774 184.529 206.866 184.517 199.566V199.511C184.529 192.218 190.431 186.303 197.708 186.303C204.984 186.303 210.898 192.23 210.898 199.536C210.898 206.841 204.99 212.768 197.708 212.768V212.774Z" fill="#5B5B5B"/>
<path d="M162.326 175.157H155.942C143.807 175.157 133.974 185.027 133.974 197.195V217.002C133.974 217.002 133.974 217.032 133.974 217.044V222.904C133.974 223.473 134.438 223.938 135.005 223.938H144.783C145.35 223.938 145.814 223.473 145.814 222.904V196.318C145.814 189.908 150.993 184.707 157.389 184.707H162.694C163.248 184.707 163.634 184.259 163.634 183.769V176.464C163.634 175.738 163.05 175.151 162.326 175.151V175.157Z" fill="#5B5B5B"/>
<path d="M253.429 175.327C249.595 175.327 245.984 176.294 242.831 177.994V165.281C242.831 164.713 242.367 164.247 241.8 164.247H232.022C231.455 164.247 230.991 164.713 230.991 165.281V197.51C230.991 197.625 230.985 197.74 230.985 197.848V215.75H230.991V222.898C230.991 223.467 231.455 223.932 232.022 223.932H241.8C242.367 223.932 242.831 223.467 242.831 222.898V197.407C242.831 192.049 247.16 187.035 252.477 186.563C258.758 186.013 264.033 190.966 264.033 197.159V222.922C264.033 223.479 264.479 223.926 265.034 223.926H274.879C275.433 223.926 275.885 223.473 275.885 222.916V197.842C275.885 185.402 265.836 175.321 253.435 175.321L253.429 175.327Z" fill="#5B5B5B"/>
<defs>
<linearGradient id="paint0_linear_401_164" x1="54.7565" y1="194.871" x2="211.166" y2="-8.04472" gradientUnits="userSpaceOnUse">
<stop offset="0.26" stop-color="#40F0C1"/>
<stop offset="1" stop-color="#BFFD3E"/>
</linearGradient>
<linearGradient id="paint1_linear_401_164" x1="16.3828" y1="171.332" x2="144.706" y2="-27.0784" gradientUnits="userSpaceOnUse">
<stop stop-color="#40F0C1"/>
<stop offset="1" stop-color="#BFFD3E"/>
</linearGradient>
</defs>
</svg>
