<svg width="60" height="60" viewBox="0 0 60 60" fill="none" xmlns="http://www.w3.org/2000/svg">
<g clip-path="url(#clip0_1037_11137)">
<path d="M30 0C24.0666 0 18.2664 1.75947 13.3329 5.05591C8.39943 8.35235 4.55426 13.0377 2.28363 18.5195C0.0129986 24.0013 -0.581102 30.0333 0.576455 35.8527C1.73401 41.6721 4.59124 47.0176 8.78681 51.2132C12.9824 55.4088 18.3279 58.266 24.1473 59.4236C29.9667 60.5811 35.9987 59.987 41.4805 57.7164C46.9623 55.4458 51.6477 51.6006 54.9441 46.6671C58.2405 41.7336 60 35.9334 60 30C60 22.0435 56.8393 14.4129 51.2132 8.7868C45.5871 3.16071 37.9565 0 30 0" fill="url(#paint0_linear_1037_11137)"/>
<path d="M44.1897 43.1732L33.3691 17.0124C32.7588 15.6598 31.8515 15 30.6557 15H29.699C28.5031 15 27.5959 15.6598 26.9856 17.0124L22.2763 28.4103H18.7134C17.6495 28.4186 16.7835 29.2763 16.7753 30.3485V30.3732C16.7835 31.4371 17.6495 32.3031 18.7134 32.3113H20.6268L16.132 43.1732C16.0495 43.4124 16 43.6598 16 43.9155C16 44.5258 16.1897 45.0041 16.5278 45.3753C16.866 45.7464 17.3526 45.9278 17.9629 45.9278C18.367 45.9196 18.7546 45.7959 19.0763 45.5567C19.4227 45.3175 19.6619 44.9711 19.8515 44.5753L24.8 32.3031H28.2309C29.2948 32.2948 30.1608 31.4371 30.1691 30.3649V30.3155C30.1608 29.2515 29.2948 28.3856 28.2309 28.3773H26.4L30.1773 18.967L40.4701 44.567C40.6598 44.9629 40.899 45.3093 41.2454 45.5485C41.567 45.7876 41.9629 45.9113 42.3588 45.9196C42.9691 45.9196 43.4474 45.7381 43.7938 45.367C44.1402 44.9959 44.3217 44.5175 44.3217 43.9072C44.3299 43.6598 44.2887 43.4041 44.1897 43.1732Z" fill="white"/>
</g>
<defs>
<linearGradient id="paint0_linear_1037_11137" x1="30" y1="-1.64844e-07" x2="30" y2="60" gradientUnits="userSpaceOnUse">
<stop stop-color="#9B60A7"/>
<stop offset="1" stop-color="#85C1D9"/>
</linearGradient>
<clipPath id="clip0_1037_11137">
<rect width="60" height="60" fill="white"/>
</clipPath>
</defs>
</svg>
