<svg width="200" height="200" viewBox="0 0 200 200" fill="none" xmlns="http://www.w3.org/2000/svg">
<g clip-path="url(#clip0_1269_7843)">
<path d="M197.008 124.19C183.651 177.762 129.385 210.365 75.8005 197.006C22.2386 183.65 -10.3679 129.387 2.99519 75.8197C16.3466 22.2419 70.6124 -10.3634 124.18 2.99234C177.761 16.3481 210.365 70.617 197.006 124.191L197.007 124.19H197.008Z" fill="black"/>
<path fill-rule="evenodd" clip-rule="evenodd" d="M144.101 85.7577C146.092 72.4499 135.959 65.2964 122.103 60.5243L126.598 42.4977L115.624 39.7634L111.248 57.3154C108.363 56.5959 105.4 55.918 102.455 55.2459L106.863 37.578L95.8949 34.8438L91.3975 52.8645C89.01 52.321 86.665 51.7838 84.3899 51.2178L84.4026 51.1611L69.2684 47.3822L66.349 59.1024C66.349 59.1024 74.4913 60.9686 74.3197 61.0835C78.7638 62.1926 79.5674 65.1341 79.434 67.4657L74.3138 88.0022C74.6198 88.0799 75.0168 88.1923 75.4548 88.3683C75.3504 88.3424 75.2442 88.3158 75.1362 88.2888C74.8653 88.221 74.5838 88.1506 74.2948 88.0814L67.118 116.85C66.5749 118.2 65.1963 120.226 62.0892 119.457C62.1992 119.616 54.1127 117.467 54.1127 117.467L48.6641 130.027L62.9457 133.587C64.5093 133.979 66.0544 134.382 67.5839 134.781L67.5851 134.781L67.5872 134.782C68.6555 135.06 69.7162 135.337 70.7702 135.606L66.2288 153.839L77.1907 156.574L81.6881 138.534C84.6827 139.347 87.5889 140.097 90.434 140.803L85.9518 158.758L96.9269 161.492L101.468 143.293C120.182 146.835 134.253 145.407 140.176 128.482C144.949 114.855 139.938 106.996 130.093 101.87C137.264 100.217 142.665 95.5007 144.105 85.7591L144.102 85.7567L144.101 85.7577ZM119.029 120.915C115.917 133.417 96.3461 128.248 87.3916 125.883L87.3904 125.883C86.5854 125.67 85.8663 125.48 85.2526 125.328L91.2791 101.172C92.0274 101.359 92.9418 101.564 93.9777 101.796C103.24 103.875 122.217 108.133 119.029 120.915H119.029ZM95.828 90.5823C103.293 92.5744 119.579 96.9203 122.415 85.5576H122.416C125.313 73.9365 109.486 70.4328 101.756 68.7216C100.886 68.5291 100.119 68.3593 99.4925 68.2031L94.0286 90.1112C94.5445 90.2398 95.1499 90.4013 95.828 90.5823Z" fill="#03AAC7"/>
</g>
<defs>
<clipPath id="clip0_1269_7843">
<rect width="200" height="200" fill="white"/>
</clipPath>
</defs>
</svg>
