<svg width="60" height="60" viewBox="0 0 60 60" fill="none" xmlns="http://www.w3.org/2000/svg">
<g clip-path="url(#clip0_2655_21904)">
<path d="M30 0C46.5701 0 60 13.4326 60 30C60 46.5701 46.5701 60 30 60C13.4326 60 0 46.5687 0 30C0 13.4326 13.4326 0 30 0Z" fill="#F5AC37"/>
<path d="M31.1074 32.1179H42.507C42.75 32.1179 42.8647 32.1179 42.8823 31.7993C42.9754 30.6397 42.9754 29.4733 42.8823 28.3122C42.8823 28.0868 42.7702 27.9936 42.5259 27.9936H19.8389C19.5581 27.9936 19.4825 28.0868 19.4825 28.35V31.6873C19.4825 32.1179 19.4825 32.1179 19.932 32.1179H31.1074ZM41.6092 24.0934C41.6416 24.0084 41.6416 23.9152 41.6092 23.8315C41.4188 23.4171 41.1934 23.0215 40.9315 22.6503C40.5373 22.0158 40.0729 21.4312 39.5437 20.9061C39.2939 20.5888 39.005 20.304 38.681 20.0623C37.0583 18.6812 35.1291 17.7038 33.0555 17.2124C32.0093 16.9775 30.94 16.8655 29.8681 16.8749H19.7997C19.5189 16.8749 19.4811 16.987 19.4811 17.2313V23.8869C19.4811 24.1677 19.4811 24.2433 19.8375 24.2433H41.4742C41.4742 24.2433 41.6618 24.2055 41.6996 24.0934H41.6078H41.6092ZM41.6092 36.0181C41.2906 35.983 40.9693 35.983 40.6507 36.0181H19.8578C19.577 36.0181 19.4825 36.0181 19.4825 36.3934V42.9005C19.4825 43.2002 19.4825 43.2758 19.8578 43.2758H29.4577C29.9167 43.3109 30.3757 43.2785 30.8253 43.1826C32.2185 43.0827 33.5888 42.7803 34.8956 42.2822C35.3708 42.1175 35.8298 41.9028 36.2631 41.645H36.3941C38.6446 40.4745 40.4725 38.6358 41.6254 36.3786C41.6254 36.3786 41.7564 36.0951 41.6092 36.0208V36.0181ZM15.7146 46.6495V46.5374V42.1688V40.6878V36.2814C15.7146 36.037 15.7146 36.0006 15.4149 36.0006H11.3459C11.1205 36.0006 11.0273 36.0006 11.0273 35.7009V32.1382H15.3771C15.6201 32.1382 15.7146 32.1382 15.7146 31.8196V28.2947C15.7146 28.0692 15.7146 28.0139 15.4149 28.0139H11.3459C11.1205 28.0139 11.0273 28.0139 11.0273 27.7142V24.4148C11.0273 24.2082 11.0273 24.1529 11.327 24.1529H15.3582C15.639 24.1529 15.7146 24.1529 15.7146 23.7964V13.6902C15.7146 13.3905 15.7146 13.3149 16.0899 13.3149H30.1516C31.1722 13.3554 32.1861 13.4675 33.1892 13.6524C35.256 14.0345 37.2419 14.773 39.0577 15.8273C40.2619 16.5361 41.3702 17.392 42.3571 18.3775C43.0996 19.1484 43.7692 19.9827 44.3632 20.871C44.9532 21.7714 45.4432 22.734 45.828 23.7397C45.8752 24.0016 46.1263 24.1785 46.3882 24.134H49.7444C50.175 24.134 50.175 24.1339 50.1939 24.5471V27.6224C50.1939 27.9221 50.0819 27.9977 49.7808 27.9977H47.1929C46.931 27.9977 46.8554 27.9977 46.8743 28.3352C46.9769 29.4773 46.9769 30.6235 46.8743 31.7656C46.8743 32.0842 46.8743 32.122 47.232 32.122H50.1926C50.3235 32.2907 50.1926 32.4595 50.1926 32.6296C50.2115 32.8469 50.2115 33.067 50.1926 33.2843V35.5537C50.1926 35.8723 50.0994 35.9668 49.8173 35.9668H46.2735C46.0264 35.9196 45.7861 36.0775 45.7294 36.3232C44.8857 38.517 43.5357 40.484 41.7914 42.0608C41.1542 42.6345 40.4846 43.1745 39.7853 43.6727C39.0347 44.1047 38.3044 44.5543 37.5349 44.9107C36.1187 45.5479 34.6337 46.0177 33.1095 46.316C31.6623 46.5752 30.1948 46.6927 28.722 46.6724H15.7092V46.6535L15.7146 46.6495Z" fill="#FEFEFD"/>
</g>
<defs>
<clipPath id="clip0_2655_21904">
<rect width="60" height="60" fill="white"/>
</clipPath>
</defs>
</svg>
