<svg width="60" height="60" viewBox="0 0 60 60" fill="none" xmlns="http://www.w3.org/2000/svg">
<g clip-path="url(#clip0_2658_22094)">
<path d="M30 60C46.5685 60 60 46.5685 60 30C60 13.4315 46.5685 0 30 0C13.4315 0 0 13.4315 0 30C0 46.5685 13.4315 60 30 60Z" fill="#2C2C3D"/>
<path d="M59.5 30C59.5 46.2924 46.2924 59.5 30 59.5C13.7076 59.5 0.5 46.2924 0.5 30C0.5 13.7076 13.7076 0.5 30 0.5C46.2924 0.5 59.5 13.7076 59.5 30Z" stroke="#223349" stroke-opacity="0.8"/>
<path d="M36.8174 16L17 44H23.0722L43 16H36.8174Z" fill="white"/>
<path d="M23.1918 16L29 23.7468L25.9863 28L17 16H23.1918Z" fill="white"/>
<path d="M37.185 44L31 35.212L34.2247 31L43 44H37.185Z" fill="#6966FF"/>
</g>
<defs>
<clipPath id="clip0_2658_22094">
<rect width="60" height="60" fill="white"/>
</clipPath>
</defs>
</svg>
