<svg width="60" height="60" viewBox="0 0 60 60" fill="none" xmlns="http://www.w3.org/2000/svg">
<circle cx="30" cy="30" r="30" fill="black"/>
<path fill-rule="evenodd" clip-rule="evenodd" d="M15.9842 38.7116L10.8477 43.8481L16.151 49.1514L21.2874 44.015C23.8158 45.59 26.8014 46.4999 29.9996 46.4999C33.1977 46.4999 36.1834 45.59 38.7117 44.015L43.8482 49.1514L49.1515 43.8481L44.0149 38.7116C45.5898 36.1833 46.4996 33.1978 46.4996 29.9999C46.4996 26.8017 45.5897 23.8161 44.0147 21.2877L49.151 16.1514L43.8477 10.8481L38.7113 15.9845C36.183 14.4097 33.1975 13.4999 29.9996 13.4999C26.8016 13.4999 23.8162 14.4097 21.2879 15.9845L16.1515 10.8481L10.8482 16.1514L15.9845 21.2877C14.4095 23.8161 13.4996 26.8017 13.4996 29.9999C13.4996 33.1978 14.4094 36.1833 15.9842 38.7116ZM26.8639 38.4385L29.9996 35.3028L33.1353 38.4385C32.1589 38.8015 31.1024 38.9999 29.9996 38.9999C28.8968 38.9999 27.8403 38.8015 26.8639 38.4385ZM21.5607 33.1351L24.6963 29.9995L21.5609 26.8641C21.1979 27.8406 20.9996 28.8971 20.9996 29.9999C20.9996 31.1025 21.1979 32.1588 21.5607 33.1351ZM26.8644 21.561L29.9996 24.6962L33.1348 21.561C32.1585 21.1982 31.1022 20.9999 29.9996 20.9999C28.897 20.9999 27.8407 21.1982 26.8644 21.561ZM38.4383 26.8641L35.3029 29.9995L38.4385 33.1351C38.8013 32.1588 38.9996 31.1025 38.9996 29.9999C38.9996 28.8971 38.8012 27.8406 38.4383 26.8641Z" fill="white"/>
<path d="M39 30C39 34.9706 34.9706 39 30 39C25.0294 39 21 34.9706 21 30C21 25.0294 25.0294 21 30 21C34.9706 21 39 25.0294 39 30Z" fill="black"/>
</svg>
