<svg width="60" height="60" viewBox="0 0 60 60" fill="none" xmlns="http://www.w3.org/2000/svg">
<g clip-path="url(#clip0_1851_7551)">
<circle cx="30" cy="30" r="30" fill="#D35756"/>
<path d="M46.8969 22.3264L36.2651 27.9134V34.3923L39.922 32.4456V36.2026L29.6179 42.1525L21.3364 37.3705C20.721 37.0152 20.21 36.5041 19.8548 35.8887C19.4995 35.2732 19.3126 34.575 19.3128 33.8644V24.3027L27.8593 19.3679C28.3937 19.0594 28.9998 18.897 29.6168 18.897C30.2338 18.897 30.84 19.0594 31.3743 19.3679L39.9209 24.3027L45.1526 21.2816L31.8384 13.594C31.1625 13.2043 30.3959 12.9993 29.6157 12.9993C28.8355 12.9993 28.069 13.2043 27.393 13.594L14.0811 21.2827V36.8789C14.0811 38.3307 14.8553 39.6702 16.1113 40.3961L29.6179 48.1937L43.1048 40.4071C43.7278 40.0475 44.2452 39.5302 44.6049 38.9072C44.9646 38.2842 45.1538 37.5774 45.1537 36.858V29.6631L46.8958 28.7371V22.3264H46.8969Z" fill="white"/>
</g>
<defs>
<clipPath id="clip0_1851_7551">
<rect width="60" height="60" fill="white"/>
</clipPath>
</defs>
</svg>
