<svg width="60" height="60" viewBox="0 0 60 60" fill="none" xmlns="http://www.w3.org/2000/svg">
<g clip-path="url(#clip0_174_13030)">
<circle cx="30" cy="30" r="30" fill="white"/>
<path d="M30 0C13.5 0 0 13.5 0 30C0 46.5 13.5 60 30 60C46.5 60 60 46.5 60 30C60 13.5 46.5 0 30 0ZM25.6661 41.6019C25.9254 44.5879 27.2217 46.8274 27.9996 48.3204C28.7774 49.8134 29.0367 50.311 27.2217 49.8134C20.2213 47.8227 13.2208 37.6205 20.7398 28.4137L21.2584 27.4184C21.7769 26.9207 22.2955 26.1742 22.814 25.6765C25.9254 22.4417 29.5552 18.7092 29.8145 10.2488C29.8145 10 30.0738 10 30.0738 10C31.1109 10.7465 32.148 11.9907 32.9258 13.7325C34.2222 15.972 35 18.958 35 22.1928C35 23.437 34.4814 24.93 33.7036 26.1742C32.9258 27.6672 31.6294 29.1602 30.5923 30.6532C27.9996 34.1369 25.1475 37.6205 25.6661 41.6019ZM42.4545 37.3623C41.9256 44.4641 36.1078 47.6205 35.8433 47.8835C32.9344 49.4617 33.9922 50.7768 32.9344 49.4617C31.6122 47.8835 29.761 45.7793 30.0255 42.0969C30.0255 39.7296 31.0833 36.5733 33.7277 32.6278C35.5789 29.7345 37.1656 26.5782 37.1656 25H37.43C38.7522 26.0521 42.9834 30.5236 42.4545 37.3623Z" fill="#0066ED"/>
</g>
<defs>
<clipPath id="clip0_174_13030">
<rect width="60" height="60" fill="white"/>
</clipPath>
</defs>
</svg>
