<svg width="60" height="60" viewBox="0 0 60 60" fill="none" xmlns="http://www.w3.org/2000/svg">
<g clip-path="url(#clip0_1037_11161)">
<path d="M29.9883 0C46.5521 0 59.9766 13.4244 59.9766 29.9883C59.9766 46.5521 46.5521 59.9766 29.9883 59.9766C13.4244 59.9766 0 46.5521 0 29.9883C0 13.4244 13.4303 0 29.9883 0Z" fill="#1BA976"/>
<path d="M14.87 19.1702C13.6693 18.397 12.1406 18.7777 12.1406 20.3416V40.0214C12.1406 40.6657 12.6678 41.1928 13.312 41.1928C13.9563 41.1928 14.4835 40.6657 14.4835 40.0214V23.4458C14.4835 22.2861 15.157 22.538 15.6549 22.8601C15.6549 22.8601 25.2839 29.707 25.4948 29.8886C25.7408 30.1053 25.8931 30.4158 25.8931 30.7672V40.0214C25.8931 40.6657 26.4202 41.1928 27.0645 41.1928C27.7088 41.1928 28.2359 40.6657 28.2359 40.0214V29.1858C28.2359 28.6469 27.8083 28.2779 27.3749 27.9968C27.2636 27.9324 14.87 19.1702 14.87 19.1702ZM32.6053 27.9968C32.1777 28.2779 31.7443 28.6469 31.7443 29.1858V40.0214C31.7443 40.6657 32.2714 41.1928 32.9157 41.1928C33.56 41.1928 34.0871 40.6657 34.0871 40.0214V30.7672C34.0871 30.4158 34.2394 30.0995 34.4854 29.8886C34.6904 29.707 44.3253 22.8601 44.3253 22.8601C44.8232 22.538 45.4967 22.2861 45.4967 23.4458V40.0214C45.4967 40.6657 46.0239 41.1928 46.6682 41.1928C47.3124 41.1928 47.8396 40.6657 47.8396 40.0214V20.3416C47.8396 18.7777 46.3109 18.397 45.1102 19.1702C45.1102 19.1702 32.7107 27.9324 32.6053 27.9968Z" fill="white"/>
</g>
<defs>
<clipPath id="clip0_1037_11161">
<rect width="60" height="60" fill="white"/>
</clipPath>
</defs>
</svg>
