<svg width="60" height="60" viewBox="0 0 60 60" fill="none" xmlns="http://www.w3.org/2000/svg">
<g clip-path="url(#clip0_1851_15350)">
<circle cx="30" cy="30" r="30" fill="white"/>
<circle cx="30" cy="30" r="29.5" stroke="#E7EBEE" stroke-opacity="0.8"/>
<path d="M51.3043 35.5054L41.5884 18.6366C39.468 15.1236 34.2458 15.092 32.1886 18.7949L21.9977 36.3283C20.0988 39.5564 22.4408 43.5758 26.2703 43.5758H46.747C50.5766 43.6075 53.4566 39.4299 51.3043 35.5054Z" fill="#003087"/>
<path d="M37.2841 36.8347L36.6828 35.7903C36.1131 34.8092 34.8788 32.7204 34.8788 32.7204L26.6501 18.4152C24.5297 15.2503 19.4659 14.9655 17.3454 18.9849L7.75587 35.5688C5.762 39.0501 8.13565 43.5759 12.4399 43.6075H32.79H41.4616H46.6205C41.3667 43.6392 39.6895 40.8857 37.2841 36.8347Z" fill="#1877F2"/>
<path d="M37.2839 36.7713L36.6826 35.7269C36.1129 34.7458 34.8786 32.657 34.8786 32.657L29.5616 23.289L21.9343 36.3283C20.0354 39.5564 22.3774 43.5758 26.2069 43.5758H32.7581H41.4299H46.6203C41.335 43.5442 39.6893 40.854 37.2839 36.7713Z" fill="url(#paint0_linear_1851_15350)"/>
</g>
<defs>
<linearGradient id="paint0_linear_1851_15350" x1="19.2121" y1="30.4187" x2="42.8558" y2="39.1558" gradientUnits="userSpaceOnUse">
<stop stop-color="#003087" stop-opacity="0"/>
<stop offset="1" stop-color="#003087"/>
</linearGradient>
<clipPath id="clip0_1851_15350">
<rect width="60" height="60" fill="white"/>
</clipPath>
</defs>
</svg>
