<svg width="64" height="64" viewBox="0 0 64 64" fill="none" xmlns="http://www.w3.org/2000/svg">
<rect width="64" height="64" rx="32" fill="#F7931A"/>
<path d="M38 11H23V13H22V15H15V17H13V26H15V27H18V35H15V37H14V38H13V46H14V47H22V51H23V53H38V51H39V50H41V47H46V46H47V45H49V43H50V42H51V31H50V30H49V21H47V19H45V17H43V15H41V14H39V13H38V11Z" fill="white"/>
<path fill-rule="evenodd" clip-rule="evenodd" d="M23 17H15V18H14V25H15V26H19V37H15V38H14V46H23V51H38V50H39V46H46V43H49V42H50V31H49V30H47V21H45V19H43V17H39V14H38V13H23V17ZM31 26H35V27H31V26ZM37 35H31V37H37V35Z" fill="#2A3B92"/>
<path fill-rule="evenodd" clip-rule="evenodd" d="M26 19H17V23H22V39H17V43H26V49H29V43H33V49H37V43H43V41H47V33H41V30H45V23H41V19H37V15H33V19H29V15H26V19ZM29 23H38V30H29V23ZM39 33H29V39H39V33Z" fill="#69DFFA"/>
</svg>
