<svg width="60" height="60" viewBox="0 0 60 60" fill="none" xmlns="http://www.w3.org/2000/svg">
<g clip-path="url(#clip0_1037_11182)">
<circle cx="30" cy="30" r="30" fill="url(#paint0_linear_1037_11182)"/>
<path d="M20.6999 22.9234C20.4743 22.6432 20.1319 22.4876 19.7661 22.4876H12.2257C12.1634 22.4876 12.1089 22.4642 12.0623 22.4253C12.0233 22.3864 12 22.3397 12 22.2853V17.2038C12 17.1494 12.0233 17.1027 12.0623 17.0638C12.1089 17.0171 12.1634 16.9937 12.2257 17.0015H20.1941C22.2018 17.0015 23.9371 17.8264 25.4001 19.4683L27.3377 21.8339L23.5636 26.4329L20.6999 22.9234ZM34.6291 19.445C36.0843 17.8186 37.8274 17.0015 39.8584 17.0015H47.8035C47.858 16.9937 47.9125 17.0171 47.9514 17.0482C47.9903 17.0871 48.0058 17.1416 47.9981 17.2038V22.2853C47.9981 22.3397 47.9825 22.3864 47.9514 22.4253C47.9125 22.472 47.858 22.4954 47.8035 22.4876H40.2631C39.9051 22.4798 39.5627 22.6432 39.3293 22.9234L33.7731 29.6856L39.3526 36.4946C39.5783 36.7514 39.9129 36.907 40.2553 36.8993H47.7957C47.8502 36.8915 47.9125 36.9226 47.9436 36.9615C47.9747 37.0082 47.9981 37.0705 47.9903 37.1249V42.2064C47.9903 42.2608 47.9747 42.3075 47.9436 42.3464C47.9047 42.3931 47.8502 42.4165 47.7957 42.4087H39.8584C37.8274 42.4087 36.0999 41.5838 34.6525 39.9419L30.0302 34.3002L25.4078 39.9419C23.9527 41.5838 22.2096 42.4087 20.1785 42.4087H12.2257C12.1712 42.4165 12.1089 42.3854 12.0778 42.3464C12.0389 42.2998 12.0233 42.2375 12.0311 42.183V37.1016C12.0311 37.0471 12.0467 37.0004 12.0778 36.9615C12.1167 36.9148 12.1712 36.8915 12.2257 36.8993H19.7661C20.1241 36.8993 20.4665 36.7359 20.6999 36.4635L26.1549 29.8024L34.6291 19.445Z" fill="#00D1FF"/>
</g>
<defs>
<linearGradient id="paint0_linear_1037_11182" x1="30" y1="0" x2="30" y2="60" gradientUnits="userSpaceOnUse">
<stop stop-color="#0B032A"/>
<stop offset="1" stop-color="#170556"/>
</linearGradient>
<clipPath id="clip0_1037_11182">
<rect width="60" height="60" fill="white"/>
</clipPath>
</defs>
</svg>
