<svg width="60" height="60" viewBox="0 0 60 60" fill="none" xmlns="http://www.w3.org/2000/svg">
<g clip-path="url(#clip0_1037_11168)">
<circle cx="30" cy="30" r="30" fill="url(#paint0_linear_1037_11168)"/>
<path d="M22.4846 12.1566C21.9238 12.0784 21.8971 12.0523 22.1642 12.0263C22.6716 11.9481 23.8466 12.0523 24.6744 12.2348C26.5972 12.678 28.3331 13.8251 30.1757 15.8326L30.6564 16.38L31.3507 16.2757C34.315 15.8065 37.3594 16.1715 39.8964 17.3186C40.5907 17.6314 41.6857 18.2571 41.8192 18.4135C41.8726 18.4657 41.9527 18.8046 42.0061 19.1435C42.1931 20.3688 42.1129 21.2813 41.7124 21.9852C41.4987 22.3762 41.4987 22.4805 41.6323 22.8194C41.7391 23.0801 42.0595 23.2626 42.3533 23.2626C42.9942 23.2626 43.6618 22.2719 43.9823 20.8902L44.1158 20.3427L44.3562 20.6034C45.7181 22.0894 46.7864 24.149 46.9466 25.6089L47 26L46.7597 25.6611C46.3591 25.0615 45.9852 24.6704 45.4778 24.3315C44.5698 23.7319 43.6084 23.5494 41.0714 23.419C38.7748 23.2887 37.4662 23.1062 36.1844 22.6891C33.9946 21.9852 32.8729 21.0727 30.2825 17.7096C29.1342 16.2236 28.4132 15.4154 27.6921 14.7376C26.1165 13.2516 24.5409 12.4695 22.4846 12.1566Z" fill="#FF007A"/>
<path d="M41.2934 15.8478C41.3422 14.7971 41.4641 14.1059 41.7324 13.47C41.8299 13.2212 41.9275 13 41.9518 13C41.9762 13 41.9275 13.1935 41.8543 13.4147C41.6592 14.023 41.6348 14.8801 41.7568 15.8478C41.9275 17.0919 42.0006 17.2578 43.1711 18.6126C43.7076 19.2485 44.3416 20.0503 44.5855 20.3821L45 20.9903L44.5855 20.548C44.0734 19.995 42.9029 18.9444 42.6346 18.8061C42.4639 18.6955 42.4395 18.6955 42.3176 18.8338C42.2201 18.9444 42.1957 19.1103 42.1957 19.9121C42.1713 21.1562 42.025 21.9304 41.6592 22.7322C41.4641 23.1469 41.4397 23.064 41.6104 22.5939C41.7324 22.2345 41.7568 22.0686 41.7568 20.8798C41.7568 18.4744 41.5129 17.8937 40.0254 16.9261C39.6596 16.6772 39.0256 16.3178 38.6598 16.1243C38.2697 15.9307 37.977 15.7648 38.0014 15.7648C38.0502 15.7095 39.4889 16.1795 40.0498 16.456C40.9033 16.8431 41.0496 16.8708 41.1471 16.8431C41.2203 16.7602 41.269 16.539 41.2934 15.8478Z" fill="#FF007A"/>
<path d="M23.5064 20.368C22.5152 18.5573 21.878 15.7474 22.0196 13.6556L22.0668 13L22.3028 13.0624C22.7276 13.1561 23.4592 13.5307 23.8132 13.8117C24.7571 14.561 25.1819 15.5913 25.5831 18.1514C25.7011 18.9007 25.8663 19.7749 25.9371 20.0558C26.0551 20.5241 26.5034 21.6169 26.881 22.3037C27.1406 22.8032 26.9754 23.053 26.3854 22.9906C25.4887 22.8657 24.2851 21.773 23.5064 20.368Z" fill="#FF007A"/>
<path d="M40.1772 30.7143C34.8747 28.6364 33 26.8442 33 23.8052C33 23.3636 33.0268 23 33.0268 23C33.0536 23 33.241 23.1558 33.4821 23.3377C34.5533 24.1688 35.7584 24.5325 39.106 25C41.061 25.2857 42.1858 25.4935 43.2035 25.8312C46.4439 26.8701 48.4525 29 48.9345 31.8831C49.0684 32.7143 48.9881 34.2987 48.7739 35.1299C48.5864 35.7792 48.0508 36.974 47.9169 37C47.8901 37 47.8365 36.8701 47.8365 36.6623C47.783 35.5714 47.2206 34.5325 46.2832 33.7273C45.1585 32.7922 43.7123 32.0909 40.1772 30.7143Z" fill="#FF007A"/>
<path d="M37.1355 31.3056C37.0832 30.962 36.9522 30.5268 36.8736 30.3436L36.7426 30L36.9784 30.252C37.3189 30.5955 37.5809 31.0078 37.8166 31.5805C38 32.0157 38 32.1531 38 32.8631C38 33.5503 37.9738 33.7106 37.8166 34.1C37.5547 34.7185 37.2403 35.1537 36.7164 35.6347C35.7734 36.4822 34.5422 36.9403 32.7871 37.1464C32.4727 37.1693 31.5821 37.238 30.7962 37.2838C28.8315 37.3755 27.5218 37.5587 26.343 37.9252C26.1858 37.971 26.0286 38.0168 26.0024 37.9939C25.95 37.9481 26.7621 37.5358 27.417 37.2609C28.3338 36.8716 29.2769 36.6654 31.3463 36.3447C32.3679 36.2073 33.4158 36.0241 33.6777 35.9324C36.2711 35.2224 37.5547 33.4587 37.1355 31.3056Z" fill="#FF007A"/>
<path d="M39.6655 35.6934C38.9829 34.138 38.8254 32.6645 39.193 31.2729C39.2455 31.1364 39.298 31 39.3505 31C39.403 31 39.5605 31.0819 39.718 31.191C40.033 31.4093 40.6893 31.7913 42.3694 32.7464C44.4958 33.947 45.7034 34.8748 46.5435 35.939C47.2785 36.8668 47.7248 37.931 47.9348 39.2408C48.0661 39.9775 47.9873 41.7512 47.8036 42.488C47.226 44.8074 45.9134 46.6629 43.997 47.7271C43.7083 47.8909 43.472 48 43.4458 48C43.4195 48 43.5245 47.7271 43.682 47.3997C44.3121 46.008 44.3908 44.6709 43.9183 43.1701C43.6295 42.2424 43.0257 41.1236 41.8181 39.2408C40.3743 37.0578 40.033 36.4848 39.6655 35.6934Z" fill="#FF007A"/>
<path d="M19.5653 43.6088C21.5573 41.7961 24.007 40.5096 26.2683 40.1003C27.2374 39.9248 28.8525 39.9833 29.7409 40.2465C31.1676 40.6558 32.4597 41.5329 33.1327 42.6147C33.7788 43.6673 34.0749 44.5736 34.371 46.591C34.4787 47.3805 34.6133 48.1991 34.6402 48.3745C34.8556 49.4271 35.2863 50.2457 35.8247 50.6843C36.6592 51.3568 38.1128 51.386 39.5395 50.8013C39.7818 50.7135 39.9972 50.6258 39.9972 50.6551C40.051 50.7135 39.3242 51.2398 38.8396 51.503C38.1667 51.8831 37.6283 52 36.9014 52C35.6093 52 34.5056 51.2691 33.6173 49.8072C33.4288 49.5148 33.052 48.6669 32.7289 47.8775C31.7867 45.5092 31.3022 44.8075 30.1985 44.0181C29.2294 43.3457 27.9911 43.1995 27.0489 43.6965C25.8106 44.3397 25.4876 46.0648 26.349 47.1173C26.699 47.5559 27.345 47.9067 27.8834 47.9944C28.8794 48.1406 29.7409 47.2927 29.7409 46.2109C29.7409 45.5092 29.4986 45.0999 28.8525 44.7783C27.9911 44.369 27.0489 44.8368 27.0758 45.7431C27.0758 46.1232 27.2374 46.3571 27.5873 46.5326C27.8027 46.6495 27.8027 46.6495 27.6411 46.6203C26.8605 46.4448 26.672 45.3923 27.2912 44.7198C28.0449 43.9012 29.6332 44.252 30.1716 45.3923C30.3869 45.8601 30.4138 46.7957 30.2254 47.3805C29.7678 48.6669 28.4756 49.3394 27.1566 48.9593C26.2683 48.6961 25.8914 48.433 24.8146 47.2343C22.9302 45.1292 22.2034 44.7198 19.5115 44.2813L19 44.1935L19.5653 43.6088Z" fill="#FF007A"/>
<path fill-rule="evenodd" clip-rule="evenodd" d="M12.7307 9.13928C19.2876 16.6373 22.5236 20.4393 23.0301 21.0752C23.4522 21.6051 23.2834 22.1085 22.5799 22.4794C22.1859 22.6914 21.3698 22.9033 20.9758 22.9033C20.5256 22.9033 19.9909 22.6914 19.6251 22.3469C19.3718 22.1085 18.2743 20.5983 15.7979 16.9685C13.9125 14.1865 12.3084 11.8815 12.2803 11.855C12.1677 11.802 12.1677 11.802 15.6009 17.5779C17.7678 21.2076 18.4713 22.5059 18.4713 22.6649C18.4713 23.0093 18.3587 23.1948 17.9085 23.6717C17.1487 24.4665 16.811 25.3673 16.5577 27.2485C16.2763 29.3416 15.5165 30.8253 13.3496 33.3423C12.0833 34.826 11.8863 35.0909 11.5768 35.7003C11.1828 36.4422 11.0702 36.8661 11.0139 37.8199C10.9577 38.8267 11.0702 39.4626 11.3798 40.4164C11.6612 41.2642 11.9707 41.8206 12.7305 42.9069C13.3778 43.8607 13.7718 44.5761 13.7718 44.841C13.7718 45.053 13.828 45.053 14.8411 44.841C17.2612 44.3111 19.2592 43.4103 20.3567 42.2975C21.0321 41.6087 21.201 41.2377 21.201 40.2839C21.201 39.6745 21.1728 39.5421 21.004 39.1711C20.7226 38.5883 20.1879 38.1113 19.0341 37.3695C17.5145 36.3892 16.8673 35.5943 16.6984 34.5345C16.5577 33.6337 16.7266 33.0243 17.5708 31.3552C18.4432 29.633 18.6683 28.9176 18.809 27.169C18.8934 26.0562 19.0341 25.6058 19.3718 25.2613C19.7376 24.8904 20.0472 24.7579 20.9196 24.652C22.3548 24.4665 23.2834 24.1221 24.0151 23.4597C24.6623 22.9033 24.9437 22.3469 24.9719 21.5256L25 20.9162L24.6342 20.5453C23.3115 19.1146 11.8584 8 11.774 8C11.7458 8 12.1961 8.5034 12.7307 9.13928ZM14.5034 38.9592C14.813 38.4558 14.6441 37.8199 14.1376 37.502C13.6592 37.2105 12.9275 37.343 12.9275 37.7404C12.9275 37.8464 12.9838 37.9524 13.1527 38.0054C13.4059 38.1378 13.4341 38.2703 13.2371 38.5618C13.0401 38.8532 13.0401 39.1182 13.2934 39.3036C13.6873 39.5951 14.222 39.4361 14.5034 38.9592Z" fill="#FF007A"/>
<path fill-rule="evenodd" clip-rule="evenodd" d="M24.3687 25.0733C23.7825 25.2831 23.2208 26.0624 23.0498 26.8418C22.9521 27.3214 23.0009 28.1907 23.1719 28.4604C23.4406 28.8801 23.6848 29 24.3687 29C25.712 29 26.8599 28.2806 26.982 27.4113C27.1041 26.6919 26.5912 25.7027 25.8829 25.2531C25.5166 25.0133 24.7594 24.9234 24.3687 25.0733ZM25.9318 26.572C26.1272 26.2123 26.0539 25.8226 25.6875 25.5529C25.0281 25.0433 24.0267 25.4629 24.0267 26.2423C24.0267 26.632 24.5396 27.0516 25.0281 27.0516C25.3456 27.0516 25.7852 26.8118 25.9318 26.572Z" fill="#FF007A"/>
</g>
<defs>
<linearGradient id="paint0_linear_1037_11168" x1="30" y1="0" x2="30" y2="60" gradientUnits="userSpaceOnUse">
<stop stop-color="#FFF9FD"/>
<stop offset="1" stop-color="#FFE6F3"/>
</linearGradient>
<clipPath id="clip0_1037_11168">
<rect width="60" height="60" fill="white"/>
</clipPath>
</defs>
</svg>
