<svg width="60" height="60" viewBox="0 0 60 60" fill="none" xmlns="http://www.w3.org/2000/svg">
<g clip-path="url(#clip0_2655_21924)">
<circle cx="30" cy="30" r="30" fill="white"/>
<path d="M30 60C13.5 60 0 46.5 0 30C0 13.5 13.5 0 30 0C46.5 0 60 13.5 60 30C60 46.5 46.75 60 30 60ZM38.25 34.75C38.25 30.25 35.5 29 30.5 28.25C26.75 27.75 26 26.75 26 25C26 23.25 27.25 22 29.75 22C32 22 33.25 22.75 33.75 24.5C33.75 25 34.25 25.25 34.75 25.25H36.75C37.25 25.25 37.75 24.75 37.5 24.25C37 21.5 35 19.75 32 19.25V16.25C32 15.75 31.5 15.25 31 15.25H29C28.5 15.25 28 15.75 28 16.25V19.25C24.25 19.75 22 22.25 22 25.5C22 29.5 24.5 31.25 29.75 32C33.25 32.5 34.25 33.25 34.25 35.25C34.25 37.25 32.5 38.5 30 38.5C26.75 38.5 25.75 37 25.25 35.25C25.25 34.75 24.75 34.5 24.25 34.5H22.5C22 34.5 21.5 35 21.75 35.5C22.25 38.5 24.25 41 28.5 41.5V44.5C28.5 45 29 45.5 29.5 45.5H31.5C32 45.5 32.5 45 32.5 44.5V41.5C35.75 40.75 38.25 38 38.25 34.75ZM23.75 48C16.5 45.25 11.5 38.5 11.5 30.5C11.5 22.5 16.75 15.5 23.75 13C24.25 12.5 24.5 12 24.5 11.5V9.75C24.5 9 24 8.75 23.25 8.75C14.25 11.75 7.5 20.25 7.5 30.25C7.5 40.25 14 48.75 23.25 51.75C24 52 24.5 51.5 24.5 50.75V49C24.5 48.75 24.25 48 23.75 48ZM37 9C36.25 8.75 35.75 9.25 35.75 10V11.75C35.75 12.25 36 12.75 36.5 13C43.75 15.75 48.75 22.5 48.75 30.5C48.75 38.5 43.5 45.5 36.5 48C36 48.25 35.75 48.75 35.75 49.25V51C35.75 51.75 36.25 52 37 52C46 49 52.75 40.5 52.75 30.5C52.75 20.5 46 11.75 37 9Z" fill="#2775CA"/>
</g>
<defs>
<clipPath id="clip0_2655_21924">
<rect width="60" height="60" fill="white"/>
</clipPath>
</defs>
</svg>
