<svg width="60" height="60" viewBox="0 0 60 60" fill="none" xmlns="http://www.w3.org/2000/svg">
<g clip-path="url(#clip0_2655_21931)">
<path fill-rule="evenodd" clip-rule="evenodd" d="M30 60C46.5685 60 60 46.5685 60 30C60 13.4314 46.5685 0 30 0C13.4314 0 0 13.4314 0 30C0 46.5685 13.4314 60 30 60Z" fill="#26A17B"/>
<path d="M49.4104 31.7833C49.4104 29.746 43.1179 28.0443 34.7344 27.6386V23.0785H44.5612V15.8823H17.1301V23.0785H27.0989V27.6352C18.6792 28.0343 12.3516 29.74 12.3516 31.7833C12.3516 33.827 18.6792 35.5327 27.0989 35.9321V50.4706H34.7344V35.9289C43.1179 35.523 49.4104 33.8213 49.4104 31.7833ZM17.2927 30.7055C17.2927 29.5213 21.4861 28.5252 27.1751 28.2353V33.1764C21.4861 32.8865 17.2927 31.8902 17.2927 30.7055ZM34.5869 33.1764V28.2353C40.2882 28.5392 44.4692 29.53 44.4692 30.7057C44.4692 31.8817 40.2882 32.8727 34.5869 33.1764Z" fill="white"/>
</g>
<defs>
<clipPath id="clip0_2655_21931">
<rect width="60" height="60" fill="white"/>
</clipPath>
</defs>
</svg>
