<svg width="60" height="60" viewBox="0 0 60 60" fill="none" xmlns="http://www.w3.org/2000/svg">
<g clip-path="url(#clip0_2658_22208)">
<circle cx="30" cy="30" r="30" fill="white"/>
<path d="M48.9248 12.5922L47.2773 14.2396C51.2084 18.5385 53.3884 24.1529 53.3884 29.9782C53.3884 35.8035 51.2084 41.4179 47.2773 45.7168L48.9248 47.3643C53.2966 42.6222 55.7237 36.4087 55.7237 29.959C55.7237 23.5093 53.2966 17.2957 48.9248 12.5537V12.5922Z" fill="#5A5564"/>
<path d="M14.2796 12.735C18.5785 8.80389 24.193 6.6239 30.0182 6.6239C35.8435 6.6239 41.4579 8.80389 45.7568 12.735L47.4043 11.0875C42.6623 6.71574 36.4488 4.28857 29.999 4.28857C23.5493 4.28857 17.3358 6.71574 12.5938 11.0875L14.2796 12.735Z" fill="#5A5564"/>
<path d="M12.7355 45.7332C8.80903 41.4352 6.63191 35.8243 6.63191 30.0028C6.63191 24.1814 8.80903 18.5704 12.7355 14.2724L11.088 12.625C6.71623 17.367 4.28906 23.5805 4.28906 30.0303C4.28906 36.48 6.71623 42.6935 11.088 47.4355L12.7355 45.7332Z" fill="#5A5564"/>
<path d="M45.734 47.2544C41.4351 51.1855 35.8207 53.3655 29.9954 53.3655C24.1701 53.3655 18.5557 51.1855 14.2568 47.2544L12.6094 48.9018C17.3514 53.2736 23.5649 55.7008 30.0146 55.7008C36.4644 55.7008 42.6779 53.2736 47.4199 48.9018L45.734 47.2544Z" fill="#5A5564"/>
<path d="M40.4003 24.5031C40.0708 21.0655 37.1054 19.9123 33.3547 19.5608V14.8271H30.4552V19.4729C29.6919 19.4729 28.9121 19.4729 28.1378 19.4729V14.8271H25.2603V19.5938H19.3789V22.6965C19.3789 22.6965 21.5206 22.658 21.4876 22.6965C21.8738 22.654 22.2614 22.7631 22.5687 23.0007C22.876 23.2384 23.0791 23.586 23.1351 23.9705V37.0183C23.1268 37.1538 23.0915 37.2864 23.0311 37.4081C22.9707 37.5297 22.8866 37.6381 22.7836 37.7267C22.6826 37.8169 22.5644 37.8858 22.436 37.9293C22.3077 37.9727 22.1719 37.9897 22.0368 37.9793C22.0752 38.0122 19.9281 37.9793 19.9281 37.9793L19.3789 41.4444H25.2054V46.2879H28.1049V41.5158H30.4223V46.2659H33.3273V41.4773C38.2257 41.1808 41.6414 39.9727 42.0697 35.3873C42.4157 31.697 40.6804 30.0496 37.9072 29.3851C39.5931 28.5559 40.6365 27.0183 40.4003 24.5031ZM36.3366 34.8162C36.3366 38.4186 30.1642 38.0067 28.1982 38.0067V31.6146C30.1642 31.6201 36.3366 31.0545 36.3366 34.8162ZM34.9912 25.8101C34.9912 29.105 29.8402 28.7041 28.2037 28.7041V22.8941C29.8402 22.8941 34.9912 22.3779 34.9912 25.8101Z" fill="#F09242"/>
<path d="M29.9945 60C24.0615 59.9989 18.2621 58.2387 13.3295 54.9418C8.39685 51.645 4.55252 46.9595 2.28258 41.478C0.0126285 35.9964 -0.581009 29.9649 0.576723 24.146C1.73445 18.327 4.59156 12.9821 8.78681 8.78681C12.9821 4.59156 18.327 1.73445 24.146 0.576723C29.9649 -0.581009 35.9964 0.0126285 41.478 2.28258C46.9595 4.55252 51.645 8.39685 54.9418 13.3295C58.2387 18.2621 59.9989 24.0615 60 29.9945C60.0007 33.9351 59.2251 37.8372 57.7174 41.478C56.2098 45.1187 53.9996 48.4268 51.2132 51.2132C48.4268 53.9996 45.1187 56.2098 41.478 57.7174C37.8372 59.2251 33.9351 60.0007 29.9945 60ZM29.9945 2.33939C24.5284 2.34373 19.1863 3.96845 14.6434 7.00818C10.1005 10.0479 6.56065 14.3662 4.47137 19.4173C2.3821 24.4683 1.83714 30.0254 2.90539 35.3861C3.97363 40.7467 6.60712 45.6704 10.473 49.5348C14.3389 53.3991 19.2636 56.0307 24.6247 57.0968C29.9858 58.1629 35.5427 57.6157 40.5929 55.5244C45.6431 53.4332 49.96 49.8916 52.9979 45.3475C56.0359 40.8034 57.6585 35.4606 57.6606 29.9945C57.6621 26.3615 56.9474 22.7638 55.5574 19.4071C54.1674 16.0505 52.1294 13.0007 49.56 10.4323C46.9905 7.86383 43.94 5.82706 40.5828 4.43841C37.2256 3.04977 33.6276 2.3365 29.9945 2.33939Z" fill="#282138"/>
</g>
<defs>
<clipPath id="clip0_2658_22208">
<rect width="60" height="60" fill="white"/>
</clipPath>
</defs>
</svg>
