<svg width="60" height="60" viewBox="0 0 60 60" fill="none" xmlns="http://www.w3.org/2000/svg">
<circle cx="30" cy="30" r="30" fill="#F2F2F2"/>
<path d="M40.9375 44.9844C40.9375 47.3143 34.0119 49.2031 25.4688 49.2031C16.9256 49.2031 10 47.3143 10 44.9844C10 42.6544 16.9256 40.7656 25.4688 40.7656C34.0119 40.7656 40.9375 42.6544 40.9375 44.9844Z" fill="black"/>
<path d="M43.9844 28.3438C43.9844 37.2752 36.744 44.5156 27.8125 44.5156C18.881 44.5156 11.6406 37.2752 11.6406 28.3438C11.6406 19.4123 18.881 12.1719 27.8125 12.1719C36.744 12.1719 43.9844 19.4123 43.9844 28.3438Z" fill="#E82574"/>
<path fill-rule="evenodd" clip-rule="evenodd" d="M45.1562 28.3438C45.1562 37.9224 37.3912 45.6875 27.8125 45.6875C18.2338 45.6875 10.4688 37.9224 10.4688 28.3438C10.4688 18.7651 18.2338 11 27.8125 11C37.3912 11 45.1562 18.7651 45.1562 28.3438ZM27.8125 44.5156C36.744 44.5156 43.9844 37.2752 43.9844 28.3438C43.9844 19.4123 36.744 12.1719 27.8125 12.1719C18.881 12.1719 11.6406 19.4123 11.6406 28.3438C11.6406 37.2752 18.881 44.5156 27.8125 44.5156Z" fill="black"/>
<path d="M48.9062 30.9219C48.9062 39.8534 41.6659 47.0938 32.7344 47.0938C23.8029 47.0938 16.5625 39.8534 16.5625 30.9219C16.5625 21.9904 23.8029 14.75 32.7344 14.75C41.6659 14.75 48.9062 21.9904 48.9062 30.9219Z" fill="white"/>
<path fill-rule="evenodd" clip-rule="evenodd" d="M50.0781 30.9219C50.0781 40.5006 42.3131 48.2656 32.7344 48.2656C23.1557 48.2656 15.3906 40.5006 15.3906 30.9219C15.3906 21.3432 23.1557 13.5781 32.7344 13.5781C42.3131 13.5781 50.0781 21.3432 50.0781 30.9219ZM32.7344 47.0938C41.6659 47.0938 48.9062 39.8534 48.9062 30.9219C48.9062 21.9904 41.6659 14.75 32.7344 14.75C23.8029 14.75 16.5625 21.9904 16.5625 30.9219C16.5625 39.8534 23.8029 47.0938 32.7344 47.0938Z" fill="black"/>
<path fill-rule="evenodd" clip-rule="evenodd" d="M16.0742 29.6928L10.918 27.2319L11.4227 26.1743L16.579 28.6353L16.0742 29.6928Z" fill="black"/>
<path fill-rule="evenodd" clip-rule="evenodd" d="M16.3086 35.6694L11.1523 33.2085L11.6571 32.1509L16.8134 34.6118L16.3086 35.6694Z" fill="black"/>
<path d="M19.1406 27.1719L21.1012 34.897L22.4654 34.8827L23.5361 30.3786L24.6068 34.8827L25.9684 34.9062L28.0469 27.1719H26.5981L25.3423 31.9169L24.2199 27.1719H22.8522L21.7492 31.8355L20.5844 27.1719H19.1406Z" fill="black"/>
<path d="M36.7038 28.517H34.6094V27.1719H40.2344V28.517H38.14V34.9062H36.7038V28.517Z" fill="black"/>
<path fill-rule="evenodd" clip-rule="evenodd" d="M28.75 27.1719H33.9062V28.517H30.2232V30.1423H33.9062V31.4874H30.2232V33.5611H33.9062V34.9062H28.75V27.1719Z" fill="black"/>
<path fill-rule="evenodd" clip-rule="evenodd" d="M40.9375 27.1719H42.3437V30.1016H44.9219V27.1719H46.3281V34.9062H44.9219V31.5078H42.3437V34.9062H40.9375V27.1719Z" fill="black"/>
</svg>
