<svg width="255" height="256" viewBox="0 0 255 256" fill="none" xmlns="http://www.w3.org/2000/svg">
<rect width="255" height="256" rx="127.5" fill="#0A57D4"/>
<path d="M220.039 134.921C217.093 143.389 209.223 148.998 200.192 148.998C188.601 148.998 179.183 139.585 179.183 128.001C179.183 116.417 188.601 107.004 200.192 107.004C209.288 107.004 217.201 112.699 220.104 121.274L235.5 114.955C230.06 100.255 215.932 90.3906 200.213 90.3906C187.333 90.3906 175.463 96.881 168.496 107.756L167.915 108.658L159.766 90.3906H150.089L128.844 138.145L107.126 90.3906H97.8578L89.6005 108.916L89.02 108.014C82.0529 96.9885 70.1401 90.3906 57.1307 90.3906C36.38 90.3906 19.5 107.261 19.5 128.001C19.5 148.74 36.38 165.611 57.1307 165.611C71.9249 165.611 85.4074 156.885 91.4713 143.389L102.567 118.673L119.576 157.057H137.961L154.992 118.609L155.508 119.812C155.615 120.049 166.152 144.227 167.077 145.946C173.678 158.067 186.365 165.611 200.149 165.611C215.653 165.611 229.694 155.961 235.263 141.54L220.297 135.114L219.996 134.899L220.039 134.921ZM57.1307 149.019C45.5404 149.019 36.122 139.606 36.122 128.022C36.122 116.438 45.5404 107.004 57.1307 107.004C68.7209 107.004 78.1393 116.417 78.1393 128.001C78.1393 139.585 68.7209 148.998 57.1307 148.998V149.019Z" fill="white"/>
</svg>
